<svg width="16" height="16" viewBox="0 0 16 16" fill="none" xmlns="http://www.w3.org/2000/svg">
<path d="M8.00018 1.49756C6.41717 1.49762 4.88582 2.06097 3.68016 3.08679C2.47449 4.11261 1.67318 5.53397 1.4196 7.09655C1.16602 8.65912 1.47673 10.2609 2.29611 11.6154C3.1155 12.9698 4.39011 13.9885 5.89186 14.4892C6.22519 14.5476 6.35019 14.3476 6.35019 14.1726C6.35019 14.0142 6.34185 13.4892 6.34185 12.9309C4.66685 13.2392 4.23351 12.5226 4.10018 12.1476C3.95223 11.7829 3.7177 11.4597 3.41685 11.2059C3.18351 11.0809 2.85018 10.7726 3.40851 10.7642C3.6217 10.7874 3.82617 10.8616 4.0046 10.9805C4.18303 11.0995 4.33016 11.2597 4.43351 11.4476C4.52469 11.6114 4.6473 11.7555 4.79431 11.8719C4.94131 11.9882 5.10983 12.0744 5.2902 12.1255C5.47057 12.1766 5.65926 12.1916 5.84543 12.1696C6.03161 12.1477 6.21163 12.0892 6.37517 11.9976C6.40403 11.6586 6.55507 11.3418 6.80018 11.1059C5.31685 10.9392 3.76685 10.3642 3.76685 7.81424C3.75748 7.15168 4.00197 6.51063 4.45018 6.02258C4.24637 5.44672 4.27022 4.81477 4.51685 4.25591C4.51685 4.25591 5.07516 4.0809 6.35018 4.93924C7.44104 4.63923 8.59266 4.63923 9.68351 4.93924C10.9585 4.07258 11.5168 4.25591 11.5168 4.25591C11.7635 4.81476 11.7874 5.44673 11.5835 6.02258C12.0331 6.50979 12.2778 7.1514 12.2668 7.81424C12.2668 10.3726 10.7085 10.9392 9.22518 11.1059C9.38428 11.2672 9.50682 11.4608 9.58446 11.6736C9.66211 11.8864 9.69305 12.1134 9.67518 12.3392C9.67518 13.2309 9.66684 13.9476 9.66684 14.1726C9.66684 14.3476 9.79184 14.5559 10.1252 14.4892C11.6243 13.9845 12.8952 12.9634 13.7111 11.6083C14.527 10.2531 14.8348 8.65211 14.5794 7.09105C14.3241 5.52999 13.5223 4.11047 12.3172 3.0859C11.112 2.06133 9.58199 1.49838 8.00018 1.49756Z" fill="#292F36"/>
</svg>
