<svg width="24" height="24" viewBox="0 0 24 24" fill="none" xmlns="http://www.w3.org/2000/svg">
<g clip-path="url(#clip0_3_2083)">
<circle cx="12" cy="12" r="12" fill="#1A202C"/>
<path d="M11.9958 17.1392C11.2302 17.1392 10.5491 17.0149 9.95246 16.7663C9.35918 16.5144 8.89351 16.1714 8.55544 15.7372C8.21737 15.303 8.04834 14.8108 8.04834 14.2606C8.04834 13.8364 8.14446 13.4469 8.33669 13.0923C8.53224 12.7344 8.79739 12.4377 9.13215 12.2024C9.4669 11.9638 9.84143 11.8113 10.2557 11.745V11.6754C9.71217 11.566 9.27135 11.3025 8.93328 10.8849C8.59522 10.464 8.42618 9.97512 8.42618 9.4183C8.42618 8.89131 8.5803 8.42233 8.88854 8.01134C9.19678 7.59704 9.61936 7.27223 10.1563 7.03691C10.6965 6.79827 11.3097 6.67896 11.9958 6.67896C12.6819 6.67896 13.2934 6.79827 13.8303 7.03691C14.3705 7.27555 14.7948 7.60201 15.103 8.01631C15.4113 8.4273 15.567 8.89463 15.5704 9.4183C15.567 9.97843 15.3947 10.4673 15.0533 10.8849C14.7119 11.3025 14.2744 11.566 13.7408 11.6754V11.745C14.1485 11.8113 14.518 11.9638 14.8495 12.2024C15.1842 12.4377 15.4494 12.7344 15.6449 13.0923C15.8438 13.4469 15.9449 13.8364 15.9482 14.2606C15.9449 14.8108 15.7742 15.303 15.4361 15.7372C15.0981 16.1714 14.6307 16.5144 14.0341 16.7663C13.4409 17.0149 12.7614 17.1392 11.9958 17.1392ZM11.9958 15.5582C12.3372 15.5582 12.6355 15.4969 12.8907 15.3743C13.1459 15.2483 13.3447 15.076 13.4873 14.8572C13.6331 14.6352 13.706 14.38 13.706 14.0916C13.706 13.7966 13.6314 13.5364 13.4823 13.3111C13.3331 13.0824 13.131 12.9034 12.8758 12.7741C12.6205 12.6415 12.3272 12.5753 11.9958 12.5753C11.6677 12.5753 11.3743 12.6415 11.1158 12.7741C10.8573 12.9034 10.6535 13.0824 10.5043 13.3111C10.3585 13.5364 10.2856 13.7966 10.2856 14.0916C10.2856 14.38 10.3568 14.6352 10.4993 14.8572C10.6419 15.076 10.8424 15.2483 11.1009 15.3743C11.3594 15.4969 11.6577 15.5582 11.9958 15.5582ZM11.9958 11.0092C12.2808 11.0092 12.5344 10.9512 12.7564 10.8352C12.9785 10.7192 13.1525 10.5585 13.2785 10.353C13.4044 10.1475 13.4674 9.91049 13.4674 9.64202C13.4674 9.37687 13.4044 9.14486 13.2785 8.946C13.1525 8.74382 12.9802 8.58639 12.7614 8.4737C12.5427 8.3577 12.2875 8.29969 11.9958 8.29969C11.7074 8.29969 11.4522 8.3577 11.2302 8.4737C11.0081 8.58639 10.8341 8.74382 10.7081 8.946C10.5855 9.14486 10.5242 9.37687 10.5242 9.64202C10.5242 9.91049 10.5872 10.1475 10.7131 10.353C10.8391 10.5585 11.0131 10.7192 11.2351 10.8352C11.4572 10.9512 11.7107 11.0092 11.9958 11.0092Z" fill="white"/>
</g>
<defs>
<clipPath id="clip0_3_2083">
<rect width="24" height="24" fill="white"/>
</clipPath>
</defs>
</svg>
