<svg width="24" height="24" viewBox="0 0 24 24" fill="none" xmlns="http://www.w3.org/2000/svg">
<g clip-path="url(#clip0_3_2088)">
<circle cx="12" cy="12" r="12" fill="#1A202C"/>
<path d="M11.9747 17.1392C11.2323 17.1392 10.5711 17.0116 9.99108 16.7564C9.41437 16.4978 8.95864 16.1432 8.62389 15.6924C8.29245 15.2384 8.12176 14.7147 8.11182 14.1214H10.2794C10.2927 14.37 10.3739 14.5888 10.523 14.7777C10.6755 14.9633 10.8777 15.1075 11.1296 15.2102C11.3815 15.313 11.6648 15.3643 11.9797 15.3643C12.3078 15.3643 12.5978 15.3063 12.8497 15.1903C13.1016 15.0743 13.2988 14.9136 13.4414 14.7081C13.5839 14.5026 13.6551 14.2656 13.6551 13.9971C13.6551 13.7254 13.5789 13.4851 13.4264 13.2763C13.2773 13.0641 13.0619 12.8984 12.7801 12.7791C12.5017 12.6598 12.1703 12.6001 11.7858 12.6001H10.8362V11.0192H11.7858C12.1106 11.0192 12.3973 10.9628 12.6459 10.8501C12.8978 10.7374 13.0934 10.5817 13.2326 10.3828C13.3718 10.1806 13.4414 9.94529 13.4414 9.67682C13.4414 9.42162 13.38 9.19789 13.2574 9.00566C13.1381 8.81011 12.9691 8.65765 12.7503 8.54827C12.5349 8.4389 12.283 8.38421 11.9946 8.38421C11.703 8.38421 11.4362 8.43724 11.1942 8.5433C10.9523 8.64605 10.7584 8.79354 10.6125 8.98577C10.4667 9.17801 10.3888 9.40339 10.3789 9.66191H8.31565C8.3256 9.07526 8.49297 8.55822 8.81778 8.11077C9.14259 7.66333 9.58009 7.31366 10.1303 7.06177C10.6838 6.80656 11.3086 6.67896 12.0046 6.67896C12.7072 6.67896 13.322 6.80656 13.849 7.06177C14.376 7.31698 14.7853 7.66167 15.077 8.09586C15.372 8.52673 15.5178 9.01063 15.5145 9.54756C15.5178 10.1176 15.3405 10.5933 14.9826 10.9744C14.6279 11.3556 14.1656 11.5975 13.5955 11.7003V11.7798C14.3445 11.8759 14.9146 12.1361 15.3057 12.5603C15.7001 12.9813 15.8957 13.5083 15.8924 14.1413C15.8957 14.7213 15.7283 15.2367 15.3902 15.6875C15.0555 16.1382 14.5931 16.4929 14.0032 16.7514C13.4132 17.0099 12.7371 17.1392 11.9747 17.1392Z" fill="white"/>
</g>
<defs>
<clipPath id="clip0_3_2088">
<rect width="24" height="24" fill="white"/>
</clipPath>
</defs>
</svg>
