<svg width="24" height="24" viewBox="0 0 24 24" fill="none" xmlns="http://www.w3.org/2000/svg">
<path fill-rule="evenodd" clip-rule="evenodd" d="M15.7798 2.38782C14.9836 2.38782 14.2199 2.70412 13.6569 3.26715L4.46691 12.4571C3.5286 13.3955 3.00146 14.6681 3.00146 15.995C3.00146 17.322 3.5286 18.5946 4.46691 19.5329C5.40522 20.4712 6.67783 20.9984 8.0048 20.9984C9.33177 20.9984 10.6044 20.4712 11.5427 19.5329L20.7327 10.3429C21.1232 9.95241 21.7564 9.95241 22.1469 10.3429C22.5374 10.7335 22.5374 11.3666 22.1469 11.7571L12.9569 20.9471C11.6435 22.2605 9.8622 22.9984 8.0048 22.9984C6.1474 22.9984 4.36607 22.2605 3.05269 20.9471C1.73931 19.6338 1.00146 17.8524 1.00146 15.995C1.00146 14.1376 1.73931 12.3563 3.05269 11.0429L12.2427 1.85293C13.1808 0.914836 14.4531 0.387817 15.7798 0.387817C17.1065 0.387817 18.3788 0.914836 19.3169 1.85293C20.255 2.79103 20.782 4.06337 20.782 5.39004C20.782 6.71671 20.255 7.98905 19.3169 8.92715L10.1169 18.1171C9.55409 18.68 8.79075 18.9962 7.9948 18.9962C7.19886 18.9962 6.43551 18.68 5.87269 18.1171C5.30988 17.5543 4.99369 16.791 4.99369 15.995C4.99369 15.1991 5.30988 14.4358 5.87269 13.8729L14.3631 5.39252C14.7539 5.00222 15.387 5.0026 15.7773 5.39335C16.1676 5.78411 16.1672 6.41727 15.7765 6.80756L7.28691 15.2871C7.09942 15.4749 6.99369 15.7297 6.99369 15.995C6.99369 16.2606 7.09916 16.5152 7.28691 16.7029C7.47465 16.8907 7.72929 16.9962 7.9948 16.9962C8.26031 16.9962 8.51495 16.8907 8.70269 16.7029L17.9027 7.51294C18.4655 6.94995 18.782 6.1861 18.782 5.39004C18.782 4.5938 18.4657 3.83017 17.9027 3.26715C17.3397 2.70412 16.576 2.38782 15.7798 2.38782Z" fill="#2D3648"/>
</svg>
