<svg width="16" height="16" viewBox="0 0 16 16" fill="none" xmlns="http://www.w3.org/2000/svg">
<g clip-path="url(#clip0_730_2516)">
<path fill-rule="evenodd" clip-rule="evenodd" d="M6.49341 5.01225C7.11575 4.68933 7.82405 4.57087 8.51759 4.67371C9.22503 4.77862 9.87997 5.10826 10.3857 5.61397C10.8914 6.11967 11.221 6.77461 11.3259 7.48205C11.4288 8.17558 11.3103 8.88389 10.9874 9.50622C10.6645 10.1286 10.1535 10.6332 9.52728 10.9484C8.90102 11.2637 8.1913 11.3734 7.49908 11.262C6.80686 11.1506 6.16739 10.8238 5.67163 10.328C5.17586 9.83224 4.84904 9.19277 4.73765 8.50056C4.62626 7.80834 4.73598 7.09862 5.0512 6.47236C5.36642 5.84609 5.87108 5.33516 6.49341 5.01225ZM8.32202 5.99262C7.90589 5.93092 7.48091 6.00199 7.10751 6.19574C6.73411 6.38949 6.43131 6.69605 6.24218 7.07181C6.05305 7.44757 5.98722 7.8734 6.05405 8.28873C6.12088 8.70406 6.31697 9.08774 6.61443 9.3852C6.9119 9.68266 7.29558 9.87876 7.71091 9.94559C8.12624 10.0124 8.55207 9.94659 8.92783 9.75746C9.30359 9.56833 9.61014 9.26553 9.80389 8.89213C9.99764 8.51873 10.0687 8.09375 10.007 7.67762C9.94407 7.25316 9.74628 6.8602 9.44286 6.55678C9.13944 6.25336 8.74648 6.05557 8.32202 5.99262Z" fill="#292F36"/>
<path d="M11.6665 3.6665C11.2983 3.6665 10.9998 3.96498 10.9998 4.33317C10.9998 4.70136 11.2983 4.99984 11.6665 4.99984H11.6732C12.0414 4.99984 12.3398 4.70136 12.3398 4.33317C12.3398 3.96498 12.0414 3.6665 11.6732 3.6665H11.6665Z" fill="#292F36"/>
<path fill-rule="evenodd" clip-rule="evenodd" d="M0.666504 4.6665C0.666504 2.45736 2.45736 0.666504 4.6665 0.666504H11.3332C13.5423 0.666504 15.3332 2.45736 15.3332 4.6665V11.3332C15.3332 13.5423 13.5423 15.3332 11.3332 15.3332H4.6665C2.45736 15.3332 0.666504 13.5423 0.666504 11.3332V4.6665ZM4.6665 1.99984C3.19374 1.99984 1.99984 3.19374 1.99984 4.6665V11.3332C1.99984 12.8059 3.19374 13.9998 4.6665 13.9998H11.3332C12.8059 13.9998 13.9998 12.8059 13.9998 11.3332V4.6665C13.9998 3.19374 12.8059 1.99984 11.3332 1.99984H4.6665Z" fill="#292F36"/>
</g>
<defs>
<clipPath id="clip0_730_2516">
<rect width="16" height="16" fill="white"/>
</clipPath>
</defs>
</svg>
