<svg width="24" height="24" viewBox="0 0 24 24" fill="none" xmlns="http://www.w3.org/2000/svg">
<path d="M16.9959 1.06663C15.4228 1.05296 13.9071 1.65773 12.7755 2.75068L12.7652 2.7608L11.0452 4.4708C10.6535 4.86018 10.6517 5.49335 11.0411 5.88501C11.4305 6.27667 12.0636 6.27851 12.4553 5.88913L14.1699 4.1845C14.9238 3.45887 15.9321 3.05746 16.9786 3.06656C18.0273 3.07567 19.0306 3.49635 19.7722 4.23798C20.5139 4.97961 20.9345 5.98286 20.9437 7.03165C20.9527 8.0777 20.5517 9.08557 19.8267 9.83934L16.8331 12.8329C16.4276 13.2385 15.9395 13.5523 15.4021 13.7528C14.8647 13.9533 14.2904 14.0358 13.7183 13.9949C13.1462 13.9539 12.5896 13.7903 12.0862 13.5153C11.5829 13.2403 11.1446 12.8603 10.801 12.401C10.4702 11.9587 9.84352 11.8684 9.40127 12.1992C8.95902 12.53 8.86867 13.1567 9.19948 13.5989C9.71482 14.2879 10.3723 14.858 11.1273 15.2705C11.8824 15.683 12.7173 15.9283 13.5755 15.9897C14.4336 16.0512 15.295 15.9274 16.1011 15.6267C16.9072 15.326 17.6392 14.8554 18.2475 14.2469L21.2474 11.2471L21.2595 11.2347C22.3525 10.1031 22.9572 8.58745 22.9436 7.01427C22.9299 5.44109 22.2989 3.93621 21.1864 2.82377C20.074 1.71132 18.5691 1.0803 16.9959 1.06663Z" fill="#2D3648"/>
<path d="M10.425 8.01018C9.56681 7.94872 8.70546 8.07254 7.89935 8.37324C7.0933 8.67392 6.36133 9.14443 5.75309 9.75285L2.75309 12.7529L2.74091 12.7652C1.64796 13.8969 1.0432 15.4125 1.05687 16.9857C1.07054 18.5588 1.70155 20.0637 2.814 21.1762C3.92645 22.2886 5.43132 22.9196 7.0045 22.9333C8.57768 22.947 10.0933 22.3422 11.2249 21.2492L11.2373 21.2371L12.9473 19.5271C13.3378 19.1365 13.3378 18.5034 12.9473 18.1129C12.5568 17.7223 11.9236 17.7223 11.5331 18.1129L9.82957 19.8164C9.0758 20.5414 8.06793 20.9425 7.02188 20.9334C5.9731 20.9243 4.96985 20.5036 4.22821 19.7619C3.48658 19.0203 3.06591 18.0171 3.05679 16.9683C3.0477 15.9222 3.44876 14.9144 4.17379 14.1606L7.16731 11.1671C7.57281 10.7614 8.06095 10.4476 8.59836 10.2471C9.13577 10.0466 9.71 9.9641 10.2821 10.0051C10.8542 10.046 11.4108 10.2096 11.9142 10.4846C12.4175 10.7596 12.8559 11.1396 13.1994 11.5989C13.5302 12.0412 14.1569 12.1315 14.5992 11.8007C15.0414 11.4699 15.1318 10.8432 14.801 10.401C14.2856 9.71203 13.6281 9.14196 12.8731 8.72945C12.1181 8.31694 11.2832 8.07164 10.425 8.01018Z" fill="#2D3648"/>
</svg>
