<svg width="24" height="24" viewBox="0 0 24 24" fill="none" xmlns="http://www.w3.org/2000/svg">
<path fill-rule="evenodd" clip-rule="evenodd" d="M12.0002 1.00208C11.4744 1.00208 10.9578 1.14026 10.5023 1.40276L7.3065 3.22894C7.09637 3.27051 6.90034 3.37905 6.75275 3.54537L3.50403 5.40178L3.50017 5.404C3.13016 5.61762 2.81107 5.90721 2.5632 6.25244C2.50287 6.3128 2.44934 6.38193 2.40458 6.4593C2.36603 6.52594 2.33603 6.59518 2.31424 6.66574C2.10851 7.07923 2.00064 7.53547 2.00017 7.999L2.00017 11.9809C1.99994 11.993 1.99994 12.0052 2.00017 12.0173L2.00017 16.0011C2.00071 16.5271 2.13958 17.0438 2.40286 17.4993C2.66614 17.9548 3.04456 18.333 3.50017 18.5961L3.50403 18.5983L6.75324 20.455C6.89565 20.6148 7.0886 20.7286 7.307 20.7714L10.5002 22.5961L10.502 22.5971C10.8192 22.78 11.166 22.9025 11.5249 22.9601C11.6663 23.0366 11.8281 23.08 12.0002 23.08C12.1722 23.08 12.3341 23.0366 12.4754 22.9601C12.8343 22.9025 13.1812 22.7799 13.4984 22.5971L13.5002 22.5961L16.6933 20.7714C16.9117 20.7286 17.1047 20.6148 17.2471 20.455L20.4963 18.5983L20.5002 18.5961C20.9558 18.333 21.3342 17.9548 21.5975 17.4993C21.8608 17.0438 21.9996 16.5271 22.0002 16.0011V12.0174C22.0004 12.0052 22.0004 11.993 22.0002 11.9808V7.999C21.9997 7.53554 21.8919 7.07938 21.6862 6.66594C21.6644 6.5953 21.6344 6.526 21.5958 6.4593C21.551 6.38187 21.4974 6.31269 21.437 6.25231C21.1892 5.90713 20.8701 5.61759 20.5002 5.40399L17.2476 3.54538C17.1 3.37905 16.904 3.2705 16.6938 3.22894L13.5002 1.404L13.4981 1.4028C13.0425 1.14027 12.526 1.00208 12.0002 1.00208ZM13.0002 20.5783L15.5002 19.1497V14.6C15.5002 14.2429 15.6906 13.9128 15.9999 13.7342L20.0002 11.4229V8.53757L13.0002 12.5868V20.5783ZM11.0002 12.5868L4.00017 8.53755V11.4229L8.00044 13.7342C8.30969 13.9128 8.50017 14.2429 8.50017 14.6V19.1497L11.0002 20.5783V12.5868ZM12.0002 10.8548L18.9612 6.82807L16.4507 5.39351L12.5004 7.67589C12.1909 7.85473 11.8094 7.85473 11.4999 7.67589L7.54962 5.39351L5.03916 6.82805L12.0002 10.8548ZM17.5002 18.0069L19.5002 16.864L19.5018 16.8631C19.6529 16.7754 19.7785 16.6497 19.8659 16.4984C19.9537 16.3466 20 16.1744 20.0002 15.999V13.7327L17.5002 15.1772V18.0069ZM4.00017 15.9994V13.7327L6.50017 15.1772V18.0069L4.50017 16.864L4.49859 16.8631C4.34742 16.7754 4.22185 16.6497 4.1344 16.4984C4.04671 16.3467 4.00042 16.1746 4.00017 15.9994ZM14.4408 4.24498L12.5002 3.13606C12.3481 3.04829 12.1757 3.00208 12.0002 3.00208C11.8246 3.00208 11.6522 3.04828 11.5002 3.13605L11.4963 3.13828L9.55956 4.24498L12.0002 5.65511L14.4408 4.24498Z" fill="#2D3648"/>
</svg>
