<svg width="24" height="24" viewBox="0 0 24 24" fill="none" xmlns="http://www.w3.org/2000/svg">
<path fill-rule="evenodd" clip-rule="evenodd" d="M18.8826 1.61892C17.5862 1.03228 16.1418 0.854655 14.7419 1.10972C13.3421 1.36478 12.0531 2.04042 11.047 3.0466C10.0408 4.05277 9.36515 5.34169 9.11008 6.74158C8.89737 7.90903 8.98558 9.10742 9.361 10.2251L2.91324 16.6729C2.32788 17.2582 1.99902 18.0522 1.99902 18.88C1.99902 19.7078 2.32788 20.5017 2.91324 21.0871C3.4986 21.6724 4.29252 22.0013 5.12034 22.0013C5.94817 22.0013 6.74209 21.6724 7.32745 21.0871L13.7752 14.6393C14.8929 15.0147 16.0913 15.103 17.2587 14.8902C18.6586 14.6352 19.9476 13.9595 20.9537 12.9534C21.9599 11.9472 22.6355 10.6583 22.8906 9.25838C23.1457 7.85848 22.968 6.41409 22.3814 5.11771C22.2461 4.81863 21.9726 4.60502 21.6496 4.54618C21.3266 4.48733 20.9954 4.59075 20.7632 4.82287L17.0003 8.58577L15.4146 6.99998L19.1775 3.23709C19.4096 3.00496 19.513 2.67369 19.4541 2.35073C19.3953 2.02777 19.1817 1.75426 18.8826 1.61892ZM15.1004 3.07733C15.5841 2.9892 16.0752 2.97339 16.5581 3.02796L13.9932 5.59287L13.9862 5.59998C13.6197 5.97384 13.4145 6.47647 13.4145 6.99998C13.4145 7.52349 13.6197 8.02612 13.9862 8.39998L13.9932 8.40709L15.5932 10.0071L15.6003 10.0141C15.9742 10.3806 16.4768 10.5858 17.0003 10.5858C17.5238 10.5858 18.0265 10.3806 18.4003 10.0141L18.4075 10.0071L20.9724 7.44218C21.0269 7.92514 21.0111 8.41622 20.923 8.89987C20.7408 9.8998 20.2582 10.8205 19.5395 11.5392C18.8208 12.2578 17.9002 12.7404 16.9002 12.9226C15.9003 13.1048 14.8686 12.978 13.9426 12.5589C13.5634 12.3873 13.1176 12.4686 12.8232 12.7629L5.91324 19.6729C5.70295 19.8832 5.41774 20.0013 5.12034 20.0013C4.82295 20.0013 4.53774 19.8832 4.32745 19.6729C4.11716 19.4626 3.99902 19.1774 3.99902 18.88C3.99902 18.5826 4.11716 18.2974 4.32745 18.0871L11.2375 11.1771C11.5318 10.8828 11.613 10.4369 11.4414 10.0577C11.0224 9.13172 10.8955 8.10001 11.0777 7.10009C11.2599 6.10016 11.7425 5.1795 12.4612 4.46081C13.1799 3.74211 14.1005 3.25952 15.1004 3.07733Z" fill="#2D3648"/>
</svg>
