<svg width="24" height="24" viewBox="0 0 24 24" fill="none" xmlns="http://www.w3.org/2000/svg">
<g clip-path="url(#clip0_3_2085)">
<circle cx="12" cy="12" r="12" fill="#1A202C"/>
<path d="M12.1117 17.1392C11.588 17.1359 11.0826 17.048 10.5953 16.8757C10.1114 16.7033 9.67726 16.4233 9.29279 16.0355C8.90832 15.6477 8.6034 15.134 8.37802 14.4943C8.15595 13.8546 8.04492 13.0691 8.04492 12.1378C8.04824 11.2826 8.14601 10.5187 8.33825 9.84586C8.5338 9.16972 8.8122 8.59633 9.17347 8.12569C9.53806 7.65504 9.9739 7.29709 10.481 7.05182C10.9881 6.80324 11.5565 6.67896 12.1863 6.67896C12.8657 6.67896 13.4656 6.81153 13.986 7.07668C14.5063 7.33852 14.9239 7.69482 15.2388 8.14557C15.557 8.59633 15.7492 9.10178 15.8155 9.66191H13.6926C13.6098 9.30727 13.4358 9.02886 13.1706 8.82668C12.9055 8.6245 12.5774 8.52342 12.1863 8.52342C11.5234 8.52342 11.0196 8.81177 10.6749 9.38847C10.3335 9.96518 10.1595 10.749 10.1529 11.74H10.2225C10.3749 11.4384 10.5804 11.1816 10.839 10.9694C11.1008 10.754 11.3974 10.5899 11.7289 10.4773C12.0636 10.3612 12.4166 10.3032 12.7878 10.3032C13.391 10.3032 13.928 10.4458 14.3986 10.7308C14.8693 11.0125 15.2405 11.4003 15.5123 11.8942C15.784 12.388 15.9199 12.9531 15.9199 13.5895C15.9199 14.2789 15.7592 14.892 15.4377 15.429C15.1195 15.9659 14.6737 16.3868 14.1003 16.6917C13.5302 16.9933 12.8674 17.1425 12.1117 17.1392ZM12.1017 15.4488C12.4332 15.4488 12.7298 15.3693 12.9917 15.2102C13.2535 15.0511 13.459 14.8357 13.6081 14.5639C13.7573 14.2921 13.8319 13.9872 13.8319 13.6491C13.8319 13.3111 13.7573 13.0078 13.6081 12.7393C13.4623 12.4709 13.2601 12.2571 13.0016 12.098C12.7431 11.9389 12.4481 11.8594 12.1167 11.8594C11.8681 11.8594 11.6377 11.9058 11.4256 11.9986C11.2168 12.0914 11.0328 12.2206 10.8738 12.3863C10.718 12.5521 10.5953 12.7443 10.5059 12.963C10.4164 13.1785 10.3716 13.4088 10.3716 13.6541C10.3716 13.9822 10.4462 14.2822 10.5953 14.554C10.7478 14.8257 10.9533 15.0428 11.2118 15.2052C11.4737 15.3676 11.7703 15.4488 12.1017 15.4488Z" fill="white"/>
</g>
<defs>
<clipPath id="clip0_3_2085">
<rect width="24" height="24" fill="white"/>
</clipPath>
</defs>
</svg>
