<svg width="297" height="42" viewBox="0 0 297 42" fill="none" xmlns="http://www.w3.org/2000/svg">
<path d="M2.72 24.904V21.576L16.48 13.864V17.256L5.888 23.112V23.368L16.48 29.192V32.616L2.72 24.904ZM29.4275 33.384C26.5902 33.384 24.4782 32.3813 23.0915 30.376C21.7262 28.3707 21.0435 25.5227 21.0435 21.832C21.0435 18.1413 21.7262 15.2933 23.0915 13.288C24.4782 11.2827 26.5902 10.28 29.4275 10.28C30.5155 10.28 31.4542 10.4293 32.2435 10.728C33.0542 11.0053 33.7475 11.4 34.3235 11.912C34.8995 12.4027 35.3795 12.9893 35.7635 13.672C36.1688 14.3333 36.4995 15.048 36.7555 15.816L33.5235 16.904C33.3528 16.392 33.1608 15.912 32.9475 15.464C32.7342 15.016 32.4675 14.632 32.1475 14.312C31.8275 13.992 31.4435 13.736 30.9955 13.544C30.5688 13.352 30.0355 13.256 29.3955 13.256C27.8168 13.256 26.6648 13.864 25.9395 15.08C25.2142 16.2747 24.8515 17.896 24.8515 19.944V23.72C24.8515 25.768 25.2142 27.4 25.9395 28.616C26.6648 29.8107 27.8168 30.408 29.3955 30.408C30.0355 30.408 30.5688 30.312 30.9955 30.12C31.4435 29.928 31.8275 29.672 32.1475 29.352C32.4675 29.032 32.7342 28.648 32.9475 28.2C33.1608 27.752 33.3528 27.272 33.5235 26.76L36.7555 27.848C36.4995 28.616 36.1688 29.3413 35.7635 30.024C35.3795 30.6853 34.8995 31.272 34.3235 31.784C33.7475 32.2747 33.0542 32.6693 32.2435 32.968C31.4542 33.2453 30.5155 33.384 29.4275 33.384ZM41.031 37.416L51.815 8.68H54.919L44.135 37.416H41.031ZM60.2825 29.224L70.8745 23.368V23.112L60.2825 17.288V13.864L74.0425 21.576V24.904L60.2825 32.616V29.224Z" fill="#12F7D6"/>
<path d="M94.408 33.384C92.4667 33.384 90.8347 33.0427 89.512 32.36C88.1893 31.6773 87.1013 30.7707 86.248 29.64L88.552 27.432C89.4053 28.456 90.312 29.2133 91.272 29.704C92.232 30.1733 93.32 30.408 94.536 30.408C95.944 30.408 97.0213 30.088 97.768 29.448C98.536 28.808 98.92 27.8907 98.92 26.696C98.92 25.736 98.6427 25 98.088 24.488C97.5333 23.9547 96.584 23.5707 95.24 23.336L92.808 22.952C91.7413 22.7813 90.8453 22.504 90.12 22.12C89.3947 21.7147 88.808 21.2453 88.36 20.712C87.912 20.1573 87.5813 19.5493 87.368 18.888C87.176 18.2053 87.08 17.4907 87.08 16.744C87.08 14.632 87.7627 13.032 89.128 11.944C90.4933 10.8347 92.3707 10.28 94.76 10.28C96.5307 10.28 98.0347 10.568 99.272 11.144C100.531 11.6987 101.544 12.488 102.312 13.512L100.072 15.752C99.4533 15.0053 98.7173 14.408 97.864 13.96C97.032 13.4907 95.9973 13.256 94.76 13.256C93.4373 13.256 92.424 13.544 91.72 14.12C91.0373 14.6747 90.696 15.496 90.696 16.584C90.696 17.5013 90.9627 18.2267 91.496 18.76C92.0507 19.272 93.0213 19.6453 94.408 19.88L96.776 20.296C98.7813 20.6587 100.243 21.3947 101.16 22.504C102.077 23.592 102.536 24.9253 102.536 26.504C102.536 27.528 102.355 28.4667 101.992 29.32C101.651 30.1733 101.128 30.8987 100.424 31.496C99.7413 32.0933 98.888 32.5627 97.864 32.904C96.8613 33.224 95.7093 33.384 94.408 33.384ZM114.812 13.48C113.916 13.48 113.286 13.2987 112.924 12.936C112.582 12.5733 112.411 12.1253 112.411 11.592V10.92C112.411 10.3867 112.582 9.93867 112.924 9.576C113.286 9.21333 113.905 9.032 114.78 9.032C115.676 9.032 116.294 9.21333 116.636 9.576C116.998 9.93867 117.18 10.3867 117.18 10.92V11.592C117.18 12.1253 116.998 12.5733 116.636 12.936C116.294 13.2987 115.686 13.48 114.812 13.48ZM107.42 30.184H113.052V19.304H107.42V16.488H116.54V30.184H121.819V33H107.42V30.184ZM126.063 33V16.488H129.551V19.304H129.711C129.882 18.8773 130.095 18.472 130.351 18.088C130.628 17.6827 130.959 17.3413 131.343 17.064C131.727 16.7653 132.175 16.5307 132.687 16.36C133.199 16.1893 133.796 16.104 134.479 16.104C136.143 16.104 137.487 16.648 138.511 17.736C139.535 18.824 140.047 20.3707 140.047 22.376V33H136.559V22.888C136.559 20.264 135.418 18.952 133.135 18.952C132.687 18.952 132.25 19.016 131.823 19.144C131.396 19.2507 131.012 19.4213 130.671 19.656C130.33 19.8907 130.052 20.1893 129.839 20.552C129.647 20.9147 129.551 21.3307 129.551 21.8V33H126.063ZM158.307 33C157.304 33 156.547 32.744 156.035 32.232C155.544 31.72 155.245 31.048 155.139 30.216H154.979C154.659 31.2187 154.072 31.9973 153.219 32.552C152.387 33.1067 151.32 33.384 150.019 33.384C148.333 33.384 146.989 32.9467 145.987 32.072C144.984 31.176 144.483 29.9493 144.483 28.392C144.483 26.792 145.069 25.576 146.243 24.744C147.437 23.8907 149.261 23.464 151.715 23.464H154.883V22.184C154.883 19.944 153.699 18.824 151.331 18.824C150.264 18.824 149.4 19.0373 148.739 19.464C148.077 19.8693 147.523 20.4133 147.075 21.096L144.995 19.4C145.464 18.504 146.253 17.736 147.363 17.096C148.472 16.4347 149.901 16.104 151.651 16.104C153.741 16.104 155.384 16.6053 156.579 17.608C157.773 18.6107 158.371 20.0613 158.371 21.96V30.248H160.451V33H158.307ZM151.01 30.824C152.141 30.824 153.069 30.568 153.795 30.056C154.52 29.544 154.883 28.8827 154.883 28.072V25.672H151.779C149.261 25.672 148.003 26.4293 148.003 27.944V28.584C148.003 29.3307 148.269 29.896 148.803 30.28C149.336 30.6427 150.072 30.824 151.01 30.824ZM164.438 33V16.488H167.926V19.304H168.086C168.257 18.8773 168.47 18.472 168.726 18.088C169.003 17.6827 169.334 17.3413 169.718 17.064C170.102 16.7653 170.55 16.5307 171.062 16.36C171.574 16.1893 172.171 16.104 172.854 16.104C174.518 16.104 175.862 16.648 176.886 17.736C177.91 18.824 178.422 20.3707 178.422 22.376V33H174.934V22.888C174.934 20.264 173.793 18.952 171.51 18.952C171.062 18.952 170.625 19.016 170.198 19.144C169.771 19.2507 169.387 19.4213 169.046 19.656C168.705 19.8907 168.427 20.1893 168.214 20.552C168.022 20.9147 167.926 21.3307 167.926 21.8V33H164.438ZM192.33 13.672V33H188.746V13.672H181.738V10.664H199.338V13.672H192.33ZM209.725 33.384C208.509 33.384 207.41 33.1813 206.429 32.776C205.469 32.3707 204.648 31.7947 203.965 31.048C203.304 30.3013 202.792 29.3947 202.429 28.328C202.066 27.2613 201.885 26.0667 201.885 24.744C201.885 23.4213 202.066 22.2267 202.429 21.16C202.792 20.0933 203.304 19.1867 203.965 18.44C204.648 17.6933 205.469 17.1173 206.429 16.712C207.41 16.3067 208.509 16.104 209.725 16.104C210.941 16.104 212.029 16.3067 212.989 16.712C213.97 17.1173 214.792 17.6933 215.453 18.44C216.136 19.1867 216.658 20.0933 217.021 21.16C217.384 22.2267 217.565 23.4213 217.565 24.744C217.565 26.0667 217.384 27.2613 217.021 28.328C216.658 29.3947 216.136 30.3013 215.453 31.048C214.792 31.7947 213.97 32.3707 212.989 32.776C212.029 33.1813 210.941 33.384 209.725 33.384ZM209.725 30.632C211.005 30.632 212.018 30.248 212.765 29.48C213.533 28.6907 213.917 27.528 213.917 25.992V23.496C213.917 21.96 213.533 20.808 212.765 20.04C212.018 19.2507 211.005 18.856 209.725 18.856C208.445 18.856 207.421 19.2507 206.653 20.04C205.906 20.808 205.533 21.96 205.533 23.496V25.992C205.533 27.528 205.906 28.6907 206.653 29.48C207.421 30.248 208.445 30.632 209.725 30.632ZM222.129 9.32H225.617V23.624H225.777L228.369 20.968L233.009 16.488H237.137L230.449 22.984L237.873 33H233.681L227.921 24.968L225.617 27.112V33H222.129V9.32ZM239.908 33V16.488H242.884V18.632H243.044C243.3 17.928 243.663 17.3307 244.132 16.84C244.623 16.3493 245.316 16.104 246.212 16.104C247.087 16.104 247.759 16.3493 248.228 16.84C248.719 17.3093 249.028 17.96 249.156 18.792H249.284C249.583 18.0453 249.999 17.416 250.532 16.904C251.065 16.3707 251.833 16.104 252.836 16.104C254.116 16.104 255.001 16.552 255.492 17.448C256.004 18.344 256.26 19.656 256.26 21.384V33H253.284V21.832C253.284 20.68 253.145 19.8907 252.868 19.464C252.591 19.016 252.143 18.792 251.524 18.792C250.969 18.792 250.5 18.984 250.116 19.368C249.753 19.7307 249.572 20.2853 249.572 21.032V33H246.596V21.832C246.596 20.68 246.457 19.8907 246.18 19.464C245.924 19.016 245.487 18.792 244.868 18.792C244.292 18.792 243.812 18.984 243.428 19.368C243.065 19.7307 242.884 20.2853 242.884 21.032V33H239.908ZM273.432 33C272.429 33 271.672 32.744 271.16 32.232C270.669 31.72 270.37 31.048 270.264 30.216H270.104C269.784 31.2187 269.197 31.9973 268.344 32.552C267.512 33.1067 266.445 33.384 265.144 33.384C263.458 33.384 262.114 32.9467 261.112 32.072C260.109 31.176 259.608 29.9493 259.608 28.392C259.608 26.792 260.194 25.576 261.368 24.744C262.562 23.8907 264.386 23.464 266.84 23.464H270.008V22.184C270.008 19.944 268.824 18.824 266.456 18.824C265.389 18.824 264.525 19.0373 263.864 19.464C263.202 19.8693 262.648 20.4133 262.2 21.096L260.12 19.4C260.589 18.504 261.378 17.736 262.488 17.096C263.597 16.4347 265.026 16.104 266.776 16.104C268.866 16.104 270.509 16.6053 271.704 17.608C272.898 18.6107 273.496 20.0613 273.496 21.96V30.248H275.576V33H273.432ZM266.135 30.824C267.266 30.824 268.194 30.568 268.92 30.056C269.645 29.544 270.008 28.8827 270.008 28.072V25.672H266.904C264.386 25.672 263.128 26.4293 263.128 27.944V28.584C263.128 29.3307 263.394 29.896 263.928 30.28C264.461 30.6427 265.197 30.824 266.135 30.824ZM279.691 9.32H283.179V23.624H283.339L285.931 20.968L290.571 16.488H294.699L288.011 22.984L295.435 33H291.243L285.483 24.968L283.179 27.112V33H279.691V9.32Z" fill="white"/>
</svg>
