<svg width="24" height="24" viewBox="0 0 24 24" fill="none" xmlns="http://www.w3.org/2000/svg">
<g clip-path="url(#clip0_3_2086)">
<circle cx="12" cy="12" r="12" fill="#1A202C"/>
<path d="M12.0321 17.1391C11.3294 17.1391 10.703 17.0099 10.1528 16.7514C9.60596 16.4928 9.17177 16.1365 8.85028 15.6825C8.52878 15.2284 8.3614 14.708 8.34814 14.1214H10.4362C10.4594 14.5158 10.6251 14.8356 10.9334 15.0809C11.2416 15.3262 11.6079 15.4488 12.0321 15.4488C12.3702 15.4488 12.6685 15.3742 12.927 15.2251C13.1888 15.0726 13.3927 14.8621 13.5385 14.5937C13.6876 14.3219 13.7622 14.0104 13.7622 13.659C13.7622 13.3011 13.686 12.9862 13.5335 12.7144C13.3844 12.4426 13.1772 12.2305 12.9121 12.0781C12.6469 11.9256 12.3436 11.8477 12.0023 11.8444C11.704 11.8444 11.414 11.9057 11.1322 12.0283C10.8538 12.151 10.6367 12.3184 10.481 12.5305L8.56689 12.1874L9.04914 6.81812H15.2736V8.57806H10.824L10.5605 11.1285H10.6202C10.7991 10.8766 11.0693 10.6678 11.4305 10.5021C11.7918 10.3363 12.1962 10.2535 12.6436 10.2535C13.2568 10.2535 13.8036 10.3977 14.2842 10.686C14.7648 10.9744 15.1443 11.3704 15.4227 11.8742C15.7011 12.3747 15.8387 12.9514 15.8354 13.6043C15.8387 14.2904 15.6796 14.9003 15.3581 15.4339C15.0399 15.9642 14.5941 16.3818 14.0207 16.6867C13.4507 16.9883 12.7878 17.1391 12.0321 17.1391Z" fill="white"/>
</g>
<defs>
<clipPath id="clip0_3_2086">
<rect width="24" height="24" fill="white"/>
</clipPath>
</defs>
</svg>
