<svg width="24" height="24" viewBox="0 0 24 24" fill="none" xmlns="http://www.w3.org/2000/svg">
<g clip-path="url(#clip0_3_2082)">
<circle cx="12" cy="12" r="12" fill="#1A202C"/>
<path d="M11.8883 6.67901C12.412 6.67901 12.9157 6.76684 13.3996 6.9425C13.8869 7.11817 14.321 7.39823 14.7022 7.7827C15.0867 8.16717 15.3899 8.67759 15.612 9.31395C15.8374 9.947 15.9517 10.7242 15.955 11.6456C15.955 12.5107 15.8573 13.2829 15.6617 13.9624C15.4695 14.6385 15.1927 15.2136 14.8315 15.6875C14.4702 16.1615 14.0343 16.5228 13.5239 16.7713C13.0135 17.0166 12.4434 17.1392 11.8137 17.1392C11.1343 17.1392 10.5343 17.0083 10.014 16.7465C9.49363 16.4813 9.07436 16.1217 8.75618 15.6676C8.44131 15.2103 8.25073 14.6965 8.18444 14.1265H10.3073C10.3902 14.4977 10.5642 14.786 10.8293 14.9915C11.0945 15.1937 11.4226 15.2948 11.8137 15.2948C12.4766 15.2948 12.9804 15.0064 13.3251 14.4297C13.6698 13.8497 13.8438 13.0559 13.8471 12.0483H13.7775C13.625 12.3466 13.4195 12.6035 13.161 12.8189C12.9025 13.031 12.6058 13.1951 12.2711 13.3111C11.9397 13.4271 11.5867 13.4851 11.2121 13.4851C10.6122 13.4851 10.077 13.3443 9.60632 13.0625C9.13568 12.7808 8.76446 12.393 8.49268 11.8992C8.2209 11.4053 8.08501 10.8419 8.08501 10.2088C8.0817 9.52607 8.23913 8.91788 8.55731 8.38426C8.8755 7.85065 9.31962 7.43303 9.8897 7.13142C10.4631 6.8265 11.1293 6.67569 11.8883 6.67901ZM11.9032 8.36935C11.5684 8.36935 11.2701 8.44889 11.0083 8.60799C10.7498 8.76708 10.5443 8.98086 10.3918 9.24932C10.2427 9.51779 10.1698 9.81774 10.1731 10.1492C10.1731 10.4839 10.246 10.7855 10.3918 11.054C10.541 11.3192 10.7432 11.5313 10.9984 11.6904C11.2569 11.8461 11.5519 11.924 11.8833 11.924C12.1319 11.924 12.3622 11.8776 12.5744 11.7848C12.7865 11.692 12.9704 11.5644 13.1262 11.402C13.2853 11.2363 13.4096 11.0457 13.4991 10.8303C13.5886 10.6149 13.6333 10.3862 13.6333 10.1442C13.63 9.82271 13.5538 9.52773 13.4046 9.25926C13.2555 8.9908 13.05 8.77536 12.7881 8.61296C12.5263 8.45055 12.2313 8.36935 11.9032 8.36935Z" fill="white"/>
</g>
<defs>
<clipPath id="clip0_3_2082">
<rect width="24" height="24" fill="white"/>
</clipPath>
</defs>
</svg>
