<svg width="24" height="24" viewBox="0 0 24 24" fill="none" xmlns="http://www.w3.org/2000/svg">
<g clip-path="url(#clip0_3_2287)">
<path d="M12.6269 2.75554C11.3816 2.20552 10.0278 1.94517 8.66728 1.9941C7.30679 2.04302 5.97514 2.39994 4.77256 3.03799C3.56998 3.67604 2.52781 4.57859 1.72452 5.6777C0.921229 6.7768 0.377743 8.04382 0.134978 9.38336C-0.107787 10.7229 -0.043504 12.1001 0.322987 13.4112C0.689478 14.7223 1.34863 15.9331 2.25081 16.9526C2.61681 17.3662 3.2488 17.4048 3.6624 17.0388C4.07599 16.6728 4.11457 16.0408 3.74857 15.6272C3.04687 14.8343 2.5342 13.8925 2.24915 12.8727C1.9641 11.853 1.9141 10.7819 2.10292 9.74001C2.29174 8.69814 2.71445 7.71269 3.33923 6.85783C3.96401 6.00297 4.77459 5.30099 5.70993 4.80472C6.64527 4.30846 7.681 4.03086 8.73915 3.9928C9.79731 3.95475 10.8503 4.15724 11.8189 4.58504C12.7874 5.01283 13.6463 5.65478 14.3309 6.46255C15.0155 7.27032 15.5079 8.22287 15.7711 9.24848C15.8845 9.69071 16.2831 9.99993 16.7397 9.99993H17.9997C18.85 9.99927 19.6791 10.2696 20.3653 10.7716C21.0516 11.2736 21.56 11.9812 21.8168 12.7918C22.0736 13.6023 22.0654 14.4736 21.7935 15.2793C21.5216 16.0849 21 16.7828 20.3045 17.2719C19.8527 17.5896 19.744 18.2134 20.0617 18.6652C20.3794 19.1169 21.0031 19.2256 21.4549 18.9079C22.4982 18.1743 23.2805 17.1273 23.6884 15.9189C24.0964 14.7105 24.1086 13.4036 23.7234 12.1877C23.3382 10.9719 22.5755 9.91044 21.5462 9.15741C20.517 8.40453 19.2748 7.9991 17.9997 7.99993H17.4801C17.1167 6.96749 16.5672 6.00784 15.8567 5.16948C14.9765 4.13092 13.8722 3.30556 12.6269 2.75554Z" fill="#2D3648"/>
<path d="M11.9998 10.9999C12.552 10.9999 12.9998 11.4477 12.9998 11.9999V18.5857L15.2926 16.2928C15.6832 15.9023 16.3163 15.9023 16.7069 16.2928C17.0974 16.6834 17.0974 17.3165 16.7069 17.707L12.7069 21.707C12.3163 22.0976 11.6832 22.0976 11.2926 21.707L7.29265 17.707C6.90212 17.3165 6.90212 16.6834 7.29265 16.2928C7.68317 15.9023 8.31634 15.9023 8.70686 16.2928L10.9998 18.5857V11.9999C10.9998 11.4477 11.4475 10.9999 11.9998 10.9999Z" fill="#2D3648"/>
</g>
<defs>
<clipPath id="clip0_3_2287">
<rect width="24" height="24" fill="white"/>
</clipPath>
</defs>
</svg>
