<svg width="24" height="24" viewBox="0 0 24 24" fill="none" xmlns="http://www.w3.org/2000/svg">
<g clip-path="url(#clip0_3_2123)">
<path fill-rule="evenodd" clip-rule="evenodd" d="M17.8099 2.15388C16.7208 1.88139 15.5744 1.94993 14.5256 2.35024C13.4768 2.75054 12.5762 3.4633 11.9457 4.3921C11.3221 5.3107 10.9924 6.3968 10.9998 7.50646C9.7425 7.41197 8.51256 7.07196 7.38071 6.50226C5.95775 5.78604 4.734 4.72901 3.81846 3.42534L3.0001 4.00005L2.10568 3.55283C2.09773 3.56873 2.09023 3.58478 2.08319 3.60096L2.08023 3.60771L2.06866 3.63464C2.0592 3.65689 2.04631 3.6877 2.03054 3.72663C1.99901 3.80446 1.95587 3.91493 1.90538 4.05458C1.80452 4.33355 1.67368 4.73082 1.54758 5.21841C1.29658 6.18894 1.05781 7.54233 1.12613 9.04545C1.19466 10.5529 1.57353 12.2317 2.57716 13.8163C3.32952 15.0043 4.41169 16.1055 5.91484 17.033C4.39647 17.7325 2.72666 18.0679 1.03985 18.0008C0.577127 17.9824 0.162301 18.2841 0.0372519 18.73C-0.0877967 19.1759 0.109649 19.6493 0.51446 19.8742C5.29097 22.5278 10.651 22.5525 14.845 20.3203C19.0632 18.0751 22.0001 13.6 22.0001 7.50005L22.0001 7.49674C21.9996 7.33448 21.9918 7.17242 21.977 7.01102C22.9426 5.93961 23.6292 4.64319 23.9717 3.23666L23.0001 3.00005L22.4237 2.18288C21.7152 2.68262 20.9449 3.08663 20.1327 3.38515C19.4724 2.7946 18.6759 2.37057 17.8099 2.15388ZM3.12407 8.95464C3.07437 7.86128 3.22106 6.84502 3.40475 6.04365C4.29735 6.95253 5.33595 7.71212 6.48152 8.28872C8.19909 9.15324 10.1038 9.57955 12.026 9.52971C12.568 9.51566 13.0001 9.07223 13.0001 8.53005V7.53005L13 7.51664C12.9905 6.80381 13.2001 6.10525 13.6005 5.51542C14.0009 4.9256 14.5727 4.47297 15.2388 4.21876C15.9048 3.96455 16.6328 3.92102 17.3244 4.09407C18.016 4.26711 18.6377 4.64837 19.1055 5.18628C19.3637 5.48308 19.7718 5.60099 20.1484 5.48758C20.3801 5.41783 20.6093 5.3411 20.8358 5.25755C20.647 5.50421 20.4407 5.73835 20.2179 5.95804C19.9803 6.19242 19.8752 6.52994 19.9379 6.8578C19.9785 7.07006 19.9993 7.28562 20.0001 7.50171C19.9996 12.9009 17.4366 16.6752 13.9053 18.5548C11.3071 19.9377 8.13037 20.3234 4.9602 19.5157C6.2343 19.1489 7.4508 18.5815 8.56173 17.8274C8.86216 17.6235 9.02844 17.2728 8.99614 16.9111C8.96384 16.5494 8.73804 16.2337 8.40624 16.0862C6.31614 15.1573 5.04039 13.9677 4.2668 12.7462C3.48918 11.5184 3.18055 10.1971 3.12407 8.95464Z" fill="#2D3648"/>
</g>
<defs>
<clipPath id="clip0_3_2123">
<rect width="24" height="24" fill="white"/>
</clipPath>
</defs>
</svg>
