<svg width="24" height="24" viewBox="0 0 24 24" fill="none" xmlns="http://www.w3.org/2000/svg">
<path fill-rule="evenodd" clip-rule="evenodd" d="M5.63703 5.63693C6.0275 5.24635 6.0274 4.61318 5.63682 4.22272C5.24623 3.83225 4.61307 3.83235 4.2226 4.22293C2.16042 6.28574 1.00195 9.08313 1.00195 11.9999C1.00195 14.9167 2.16042 17.7141 4.2226 19.7769C4.61307 20.1675 5.24623 20.1676 5.63682 19.7771C6.0274 19.3867 6.0275 18.7535 5.63703 18.3629C3.94979 16.6752 3.00195 14.3864 3.00195 11.9999C3.00195 9.61345 3.94979 7.32468 5.63703 5.63693ZM19.777 4.22293C19.3866 3.83235 18.7534 3.83225 18.3628 4.22272C17.9722 4.61318 17.9721 5.24635 18.3626 5.63693C20.0498 7.32468 20.9977 9.61345 20.9977 11.9999C20.9977 14.3864 20.0498 16.6752 18.3626 18.3629C17.9721 18.7535 17.9722 19.3867 18.3628 19.7771C18.7534 20.1676 19.3866 20.1675 19.777 19.7769C21.8392 17.7141 22.9977 14.9167 22.9977 11.9999C22.9977 9.08313 21.8392 6.28574 19.777 4.22293ZM8.46653 8.45743C8.85727 8.06712 8.85763 7.43396 8.46732 7.04322C8.07701 6.65248 7.44385 6.65212 7.0531 7.04243C6.40227 7.69254 5.88596 8.46456 5.53369 9.31435C5.18142 10.1641 5.0001 11.075 5.0001 11.9949C5.0001 12.9148 5.18142 13.8257 5.53369 14.6755C5.88596 15.5253 6.40227 16.2973 7.0531 16.9474C7.44385 17.3377 8.07701 17.3374 8.46732 16.9466C8.85763 16.5559 8.85727 15.9227 8.46653 15.5324C8.00165 15.0681 7.63285 14.5166 7.38123 13.9096C7.12961 13.3026 7.0001 12.652 7.0001 11.9949C7.0001 11.3379 7.12961 10.6872 7.38123 10.0802C7.63285 9.47324 8.00165 8.9218 8.46653 8.45743ZM16.9465 7.05243C16.5558 6.66213 15.9226 6.66248 15.5323 7.05322C15.142 7.44396 15.1424 8.07713 15.5331 8.46743C15.998 8.9318 16.3668 9.48324 16.6184 10.0902C16.87 10.6972 16.9995 11.3479 16.9995 12.0049C16.9995 12.662 16.87 13.3126 16.6184 13.9196C16.3668 14.5266 15.998 15.0781 15.5331 15.5424C15.1424 15.9327 15.142 16.5659 15.5323 16.9566C15.9226 17.3474 16.5558 17.3477 16.9465 16.9574C17.5974 16.3073 18.1137 15.5353 18.466 14.6855C18.8182 13.8357 18.9995 12.9248 18.9995 12.0049C18.9995 11.085 18.8182 10.1741 18.466 9.32435C18.1137 8.47456 17.5974 7.70254 16.9465 7.05243ZM10.9998 11.9999C10.9998 11.4477 11.4475 10.9999 11.9998 10.9999C12.552 10.9999 12.9998 11.4477 12.9998 11.9999C12.9998 12.5522 12.552 12.9999 11.9998 12.9999C11.4475 12.9999 10.9998 12.5522 10.9998 11.9999ZM11.9998 8.99994C10.3429 8.99994 8.99976 10.3431 8.99976 11.9999C8.99976 13.6568 10.3429 14.9999 11.9998 14.9999C13.6566 14.9999 14.9998 13.6568 14.9998 11.9999C14.9998 10.3431 13.6566 8.99994 11.9998 8.99994Z" fill="#2D3648"/>
</svg>
