<svg width="24" height="24" viewBox="0 0 24 24" fill="none" xmlns="http://www.w3.org/2000/svg">
<g clip-path="url(#clip0_3_2090)">
<circle cx="12" cy="12" r="12" fill="#1A202C"/>
<path d="M11.9983 17.2237C11.1432 17.2204 10.4074 17.0099 9.79089 16.5923C9.17773 16.1747 8.70542 15.5698 8.37398 14.7777C8.04586 13.9855 7.88345 13.0326 7.88677 11.919C7.88677 10.8087 8.05083 9.86243 8.37896 9.08023C8.7104 8.29804 9.1827 7.7031 9.79586 7.29543C10.4123 6.88445 11.1465 6.67896 11.9983 6.67896C12.8501 6.67896 13.5826 6.88445 14.1957 7.29543C14.8122 7.70642 15.2862 8.30301 15.6176 9.08521C15.949 9.86409 16.1131 10.8087 16.1098 11.919C16.1098 13.036 15.9441 13.9905 15.6126 14.7826C15.2845 15.5748 14.8139 16.1797 14.2007 16.5973C13.5875 17.0149 12.8534 17.2237 11.9983 17.2237ZM11.9983 15.4389C12.5816 15.4389 13.0473 15.1456 13.3953 14.5589C13.7433 13.9723 13.9157 13.0923 13.9123 11.919C13.9123 11.1468 13.8328 10.5038 13.6737 9.99003C13.5179 9.4763 13.2959 9.09018 13.0075 8.83165C12.7225 8.57313 12.3861 8.44387 11.9983 8.44387C11.4183 8.44387 10.9542 8.73388 10.6062 9.3139C10.2582 9.89392 10.0826 10.7623 10.0792 11.919C10.0792 12.7012 10.1571 13.3541 10.3129 13.8778C10.472 14.3982 10.6957 14.7893 10.9841 15.0511C11.2724 15.3096 11.6105 15.4389 11.9983 15.4389Z" fill="white"/>
</g>
<defs>
<clipPath id="clip0_3_2090">
<rect width="24" height="24" fill="white"/>
</clipPath>
</defs>
</svg>
