<svg width="24" height="24" viewBox="0 0 24 24" fill="none" xmlns="http://www.w3.org/2000/svg">
<path d="M3.29309 5.29289C3.48063 5.10536 3.73498 5 4.0002 5H20.0002C20.2654 5 20.5198 5.10536 20.7073 5.29289C20.8948 5.48043 21.0002 5.73478 21.0002 6V18C21.0002 18.2652 20.8948 18.5196 20.7073 18.7071C20.5198 18.8946 20.2654 19 20.0002 19H14.0002C13.4479 19 13.0002 19.4477 13.0002 20C13.0002 20.5523 13.4479 21 14.0002 21H20.0002C20.7958 21 21.5589 20.6839 22.1215 20.1213C22.6841 19.5587 23.0002 18.7957 23.0002 18V6C23.0002 5.20435 22.6841 4.44129 22.1215 3.87868C21.5589 3.31607 20.7958 3 20.0002 3H4.0002C3.20455 3 2.44149 3.31607 1.87888 3.87868C1.31627 4.44129 1.0002 5.20435 1.0002 6V8C1.0002 8.55228 1.44791 9 2.0002 9C2.55248 9 3.0002 8.55228 3.0002 8V6C3.0002 5.73478 3.10555 5.48043 3.29309 5.29289Z" fill="#2D3648"/>
<path d="M2.11074 11.0561C1.56184 10.9951 1.06737 11.3906 1.00632 11.9395C0.945276 12.4884 1.34076 12.9828 1.88966 13.0439C3.6948 13.2446 5.3779 14.0537 6.6622 15.338C7.94651 16.6223 8.75556 18.3054 8.95633 20.1105C9.01737 20.6594 9.51184 21.0549 10.0607 20.9939C10.6096 20.9328 11.0051 20.4384 10.9441 19.8895C10.6931 17.633 9.6818 15.5292 8.07642 13.9238C6.47104 12.3184 4.36717 11.3071 2.11074 11.0561Z" fill="#2D3648"/>
<path d="M2.20003 15.1202C1.65888 15.0098 1.13073 15.359 1.02037 15.9002C0.910003 16.4413 1.25922 16.9695 1.80037 17.0798C2.56908 17.2366 3.27472 17.616 3.82947 18.1707C4.38422 18.7255 4.76359 19.4311 4.92037 20.1998C5.03073 20.741 5.55888 21.0902 6.10003 20.9798C6.64117 20.8695 6.99039 20.3413 6.88003 19.8002C6.64487 18.6471 6.07581 17.5886 5.24369 16.7565C4.41156 15.9244 3.3531 15.3553 2.20003 15.1202Z" fill="#2D3648"/>
<path d="M2.00024 19C1.44796 19 1.00024 19.4477 1.00024 20C1.00024 20.5523 1.44796 21 2.00024 21H2.01024C2.56253 21 3.01024 20.5523 3.01024 20C3.01024 19.4477 2.56253 19 2.01024 19H2.00024Z" fill="#2D3648"/>
</svg>
