<svg width="24" height="24" viewBox="0 0 24 24" fill="none" xmlns="http://www.w3.org/2000/svg">
<g clip-path="url(#clip0_3_2089)">
<circle cx="12" cy="12" r="12" fill="#1A202C"/>
<path d="M8.41633 17V15.4488L12.0406 12.093C12.3489 11.7947 12.6074 11.5263 12.8162 11.2876C13.0283 11.049 13.1891 10.8153 13.2984 10.5866C13.4078 10.3546 13.4625 10.1044 13.4625 9.83592C13.4625 9.53762 13.3945 9.28075 13.2587 9.06532C13.1228 8.84657 12.9372 8.67919 12.7018 8.56319C12.4665 8.44387 12.1997 8.38421 11.9014 8.38421C11.5899 8.38421 11.3181 8.44718 11.0861 8.57313C10.8541 8.69908 10.6751 8.87971 10.5491 9.11503C10.4232 9.35036 10.3602 9.63042 10.3602 9.95523H8.31689C8.31689 9.28904 8.4677 8.71068 8.76931 8.22015C9.07092 7.72962 9.4935 7.35012 10.0371 7.08165C10.5806 6.81319 11.207 6.67896 11.9163 6.67896C12.6455 6.67896 13.2802 6.80822 13.8204 7.06674C14.364 7.32195 14.7866 7.67659 15.0882 8.13066C15.3898 8.58473 15.5406 9.10509 15.5406 9.69174C15.5406 10.0762 15.4644 10.4557 15.3119 10.8302C15.1628 11.2048 14.896 11.6207 14.5115 12.0781C14.127 12.5322 13.5851 13.0774 12.8858 13.7138L11.3993 15.1704V15.24H15.6748V17H8.41633Z" fill="white"/>
</g>
<defs>
<clipPath id="clip0_3_2089">
<rect width="24" height="24" fill="white"/>
</clipPath>
</defs>
</svg>
