<svg width="24" height="24" viewBox="0 0 24 24" fill="none" xmlns="http://www.w3.org/2000/svg">
<g clip-path="url(#clip0_3_2310)">
<circle cx="12" cy="12" r="12" fill="#1A202C"/>
<path d="M9.08066 6.81816V17H6.92796V8.86148H6.8683L4.53662 10.3231V8.41404L7.05722 6.81816H9.08066Z" fill="white"/>
<path d="M15.3528 17.2237C14.4977 17.2204 13.7619 17.0099 13.1454 16.5923C12.5322 16.1747 12.0599 15.5698 11.7285 14.7777C11.4004 13.9855 11.2379 13.0326 11.2413 11.919C11.2413 10.8087 11.4053 9.86243 11.7334 9.08023C12.0649 8.29804 12.5372 7.7031 13.1504 7.29543C13.7668 6.88445 14.501 6.67896 15.3528 6.67896C16.2046 6.67896 16.937 6.88445 17.5502 7.29543C18.1667 7.70642 18.6406 8.30301 18.9721 9.08521C19.3035 9.86409 19.4676 10.8087 19.4643 11.919C19.4643 13.036 19.2986 13.9905 18.9671 14.7826C18.639 15.5748 18.1683 16.1797 17.5552 16.5973C16.942 17.0149 16.2079 17.2237 15.3528 17.2237ZM15.3528 15.4389C15.9361 15.4389 16.4018 15.1456 16.7498 14.5589C17.0978 13.9723 17.2701 13.0923 17.2668 11.919C17.2668 11.1468 17.1873 10.5038 17.0282 9.99003C16.8724 9.4763 16.6503 9.09018 16.362 8.83165C16.077 8.57313 15.7405 8.44387 15.3528 8.44387C14.7727 8.44387 14.3087 8.73388 13.9607 9.3139C13.6127 9.89392 13.437 10.7623 13.4337 11.919C13.4337 12.7012 13.5116 13.3541 13.6674 13.8778C13.8265 14.3982 14.0502 14.7893 14.3386 15.0511C14.6269 15.3096 14.965 15.4389 15.3528 15.4389Z" fill="white"/>
</g>
<defs>
<clipPath id="clip0_3_2310">
<rect width="24" height="24" fill="white"/>
</clipPath>
</defs>
</svg>
